<?xml version="1.0" encoding="iso-8859-1"?>
<!-- Generator: Adobe Illustrator 19.0.0, SVG Export Plug-In . SVG Version: 6.00 Build 0)  -->
<svg version="1.1" id="Capa_1" xmlns="http://www.w3.org/2000/svg" xmlns:xlink="http://www.w3.org/1999/xlink" x="0px" y="0px"
	 viewBox="0 0 512 512" style="enable-background:new 0 0 512 512;" xml:space="preserve">
<g>
	<g>
		<path d="M497,152c8.284,0,15-6.716,15-15V77c0-8.128-6.572-14.954-14.933-14.997c-0.022,0-0.044-0.003-0.067-0.003h-62
			c-8.284,0-15,6.716-15,15s6.716,15,15,15h25.543L283.642,267.232L174,185c-5.972-4.479-14.328-3.885-19.606,1.393L60,280.787V15
			c0-8.284-6.716-15-15-15S30,6.716,30,15v47H15C6.716,62,0,68.716,0,77s6.716,15,15,15h15v30H15c-8.284,0-15,6.716-15,15
			s6.716,15,15,15h15v30H15c-8.284,0-15,6.716-15,15s6.716,15,15,15h15v30H15c-8.284,0-15,6.716-15,15s6.716,15,15,15h15v30H15
			c-8.284,0-15,6.716-15,15s6.716,15,15,15h15v30H15c-8.284,0-15,6.716-15,15s6.716,15,15,15h15v30H15c-8.284,0-15,6.716-15,15
			s6.716,15,15,15h15v15c0,8.284,6.716,15,15,15h15v15c0,8.284,6.716,15,15,15s15-6.716,15-15v-15h30v15c0,8.284,6.716,15,15,15
			s15-6.716,15-15v-15h30v15c0,8.284,6.716,15,15,15s15-6.716,15-15v-15h30v15c0,8.284,6.716,15,15,15s15-6.716,15-15v-15h30v15
			c0,8.284,6.716,15,15,15s15-6.716,15-15v-15h30v15c0,8.284,6.716,15,15,15s15-6.716,15-15v-15h30v15c0,8.284,6.716,15,15,15
			s15-6.716,15-15v-15h47c8.284,0,15-6.716,15-15s-6.716-15-15-15h-77V174.387l62-61.415V137C482,145.284,488.716,152,497,152z
			 M150,452H60V323.213l90-90V452z M270,452h-90V227l90,67.5V452z M390,452h-90V293.255l90-89.151V452z"/>
	</g>
</g>
<g>
</g>
<g>
</g>
<g>
</g>
<g>
</g>
<g>
</g>
<g>
</g>
<g>
</g>
<g>
</g>
<g>
</g>
<g>
</g>
<g>
</g>
<g>
</g>
<g>
</g>
<g>
</g>
<g>
</g>
</svg>
