<?xml version="1.0" encoding="iso-8859-1"?>
<!-- Generator: Adobe Illustrator 19.0.0, SVG Export Plug-In . SVG Version: 6.00 Build 0)  -->
<svg version="1.1" id="Capa_1" xmlns="http://www.w3.org/2000/svg" xmlns:xlink="http://www.w3.org/1999/xlink" x="0px" y="0px"
	 viewBox="0 0 512 512" style="enable-background:new 0 0 512 512;" xml:space="preserve">
<g>
	<g>
		<path d="M437.02,74.98C388.668,26.628,324.38,0,256,0S123.332,26.628,74.98,74.98C26.629,123.332,0,187.62,0,256
			s26.629,132.668,74.98,181.02C123.332,485.372,187.62,512,256,512s132.668-26.628,181.02-74.98
			C485.371,388.668,512,324.38,512,256S485.371,123.332,437.02,74.98z M256,482C131.383,482,30,380.617,30,256S131.383,30,256,30
			s226,101.383,226,226S380.617,482,256,482z"/>
	</g>
</g>
<g>
	<g>
		<path d="M272.067,241h-32.134c-18.307,0-33.2-14.893-33.2-33.199c0-18.307,14.894-33.2,33.2-33.2H304.2c8.284,0,15-6.716,15-15
			s-6.716-15-15-15H271v-33.2c0-8.284-6.716-15-15-15s-15,6.716-15,15v33.2h-1.066c-34.849,0-63.2,28.352-63.2,63.2
			c0,34.848,28.352,63.199,63.2,63.199h32.134c18.306,0,33.199,14.894,33.199,33.2c0,18.306-14.893,33.2-33.199,33.2h-64.267
			c-8.284,0-15,6.716-15,15s6.716,15,15,15H241v33.201c0,8.284,6.716,15,15,15s15-6.716,15-15V367.4h1.067
			c34.848,0,63.199-28.352,63.199-63.2S306.915,241,272.067,241z"/>
	</g>
</g>
<g>
</g>
<g>
</g>
<g>
</g>
<g>
</g>
<g>
</g>
<g>
</g>
<g>
</g>
<g>
</g>
<g>
</g>
<g>
</g>
<g>
</g>
<g>
</g>
<g>
</g>
<g>
</g>
<g>
</g>
</svg>
